<svg width="23" height="44" viewBox="0 0 23 44" fill="none" xmlns="http://www.w3.org/2000/svg">
<path fill-rule="evenodd" clip-rule="evenodd" d="M14.9731 7.75041C15.4342 7.20702 16.3709 6.82093 17.6967 6.82093C18.9361 6.82093 20.4204 6.97823 21.8183 7.37862L23 1.08677C20.5789 0.243094 18.1003 0 15.5207 0C12.9411 0 10.9236 0.38609 9.2807 1.32987C7.63784 2.24504 6.55702 3.27462 5.93734 4.73318C5.30326 6.04875 5.00063 8.27949 5.00063 11.0679V13.5418H0V20.7345H5.00063V43.2993C7.09023 43.7855 9.2807 44 11.5432 44C12.3935 44 13.2581 44 14.1084 43.8427V20.7345H20.7375V13.5418H14.1084V11.2109C14.1084 9.43776 14.3534 8.36529 14.9731 7.75041Z" fill="#FFFFFE"/>
</svg>
