<svg width="33" height="32" viewBox="0 0 33 32" fill="none" xmlns="http://www.w3.org/2000/svg">
<path fill-rule="evenodd" clip-rule="evenodd" d="M29.2282 26.4569C29.199 27.9417 28.8058 28.3659 27.2767 28.3659C23.6796 28.3659 20.0825 28.3659 16.4709 28.3659C12.9029 28.3659 9.30583 28.3659 5.70874 28.3659C4.20874 28.3659 3.77184 27.9417 3.77184 26.4569C3.77184 22.5966 3.78641 18.6796 3.71359 14.7768C3.71359 13.688 4.03398 13.4335 5.08252 13.4759C6.59709 13.5749 6.62621 13.5183 6.45146 14.9465C5.86893 19.8957 9.3932 24.7035 14.4175 25.6509C19.5874 26.6125 24.7718 23.5864 26.1845 18.7928C26.6214 17.2797 26.7524 15.6818 26.4175 14.1829C26.301 13.6173 26.4466 13.5183 26.9563 13.5183C29.2282 13.3628 29.2282 13.3204 29.2282 15.597C29.2282 19.1887 29.2282 22.8369 29.2282 26.4569ZM16.5146 9.79938C19.966 9.79938 22.9223 12.6699 22.8641 15.9929C22.835 19.4149 19.9078 22.2572 16.4126 22.1865C12.932 22.1158 10.0049 19.2735 10.0922 15.9222C10.1796 12.5709 13.0777 9.79938 16.5146 9.79938ZM25.966 3.61997C29.2282 3.61997 29.2282 3.61997 29.2282 6.80159C29.2282 9.91251 29.2282 9.91251 26.0243 9.91251C22.7767 9.91251 22.7767 9.91251 22.7767 6.75917C22.7767 3.61997 22.7767 3.61997 25.966 3.61997ZM28.6311 0C20.5631 0 12.4515 0 4.36893 0C1.48544 0 0 1.48475 0 4.28458C0 8.17322 0 12.0619 0 15.9929C0 19.8957 0 23.8692 0 27.8003C0 30.5152 1.52913 32 4.23786 32C12.3932 32 20.5049 32 28.6311 32C31.4563 32 33 30.5152 33 27.7578C33 19.8957 33 12.0619 33 4.19973C33 1.48475 31.4563 0 28.6311 0Z" fill="#FFFEFD"/>
</svg>
