<svg xmlns="http://www.w3.org/2000/svg" viewBox="0 0 180.69 18.84"><defs><style>.cls-1{fill:#fff;}</style></defs><title>Asset 2</title><g id="Layer_2" data-name="Layer 2"><g id="Layer_1-2" data-name="Layer 1"><path class="cls-1" d="M21.91,5.89V4.55a5.2,5.2,0,0,0-.32-1.85,3.62,3.62,0,0,0-1-1.43A5,5,0,0,0,18.73.34,9.41,9.41,0,0,0,16,0H0V2.78H16c1.56,0,2.35.58,2.35,1.74V5.91c0,1.16-.79,1.74-2.35,1.74H0V18.84H3.56V10.43h9.92l4.42,8.41h3.79l-4.43-8.46a5.27,5.27,0,0,0,3.58-1.45A4.48,4.48,0,0,0,21.91,5.89Z"/><path class="cls-1" d="M38.15,0h-2.6L23,18.84h4L36.86,3.67l9.72,15.17h4Z"/><path class="cls-1" d="M52.46,0V18.84H56V0Z"/><path class="cls-1" d="M81.84,10.11a3.62,3.62,0,0,0-1-1.43A5.09,5.09,0,0,0,79,7.75a9.49,9.49,0,0,0-2.74-.34H65.17c-1.57,0-2.36-.58-2.36-1.73V4.52c0-1.16.79-1.74,2.36-1.74h16V0h-16a9.41,9.41,0,0,0-2.73.34,4.92,4.92,0,0,0-1.83.93,3.52,3.52,0,0,0-1,1.43,5,5,0,0,0-.32,1.85v1.1a4.94,4.94,0,0,0,.32,1.84,3.55,3.55,0,0,0,1,1.44,4.92,4.92,0,0,0,1.83.93,9.44,9.44,0,0,0,2.73.33H76.24c1.58,0,2.36.58,2.36,1.74v2.38c0,1.17-.78,1.74-2.36,1.74H59.87v2.79H76.24A9.85,9.85,0,0,0,79,18.5a4.94,4.94,0,0,0,1.83-.94,3.55,3.55,0,0,0,1-1.43,5.11,5.11,0,0,0,.32-1.84V12A5.24,5.24,0,0,0,81.84,10.11Z"/><path class="cls-1" d="M129.3,0V14L110.55,0h-3.08V18.84h3.1V4.18l20.09,14.66h1.74V0Z"/><path class="cls-1" d="M158.09,10.11a3.62,3.62,0,0,0-1-1.43,5.05,5.05,0,0,0-1.84-.93,9.41,9.41,0,0,0-2.73-.34H141.42c-1.57,0-2.36-.58-2.36-1.73V4.52c0-1.16.79-1.74,2.36-1.74h15.94V0H141.42a9.41,9.41,0,0,0-2.73.34,4.92,4.92,0,0,0-1.83.93,3.43,3.43,0,0,0-1,1.43,5,5,0,0,0-.33,1.85v1.1a4.94,4.94,0,0,0,.33,1.84,3.46,3.46,0,0,0,1,1.44,4.92,4.92,0,0,0,1.83.93,9.44,9.44,0,0,0,2.73.33h11.07c1.57,0,2.36.58,2.36,1.74v2.38c0,1.17-.79,1.74-2.36,1.74H136.12v2.79h16.37a9.77,9.77,0,0,0,2.73-.34,4.91,4.91,0,0,0,1.84-.94,3.55,3.55,0,0,0,1-1.43,5.11,5.11,0,0,0,.32-1.84V12A5.24,5.24,0,0,0,158.09,10.11Z"/><path class="cls-1" d="M161.32,0V2.78h19.37V0Zm3.56,16.05V10.28h9.56V7.49H161.32V18.84h19.37V16.05Z"/><path class="cls-1" d="M85.07,0V2.78h19.38V0Zm3.56,16.05V10.28h9.56V7.49H85.07V18.84h19.38V16.05Z"/></g></g></svg>