<svg width="587" height="80" viewBox="0 0 587 80" fill="none" xmlns="http://www.w3.org/2000/svg">
<path fill-rule="evenodd" clip-rule="evenodd" d="M70.9937 25.0024V19.3392C71.0233 16.6609 70.6714 13.9989 69.956 11.4897C69.2494 9.13038 68.1023 7.04111 66.6198 5.41333C64.8708 3.56637 62.8496 2.21265 60.6828 1.43698C57.7988 0.410933 54.8178 -0.0701664 51.83 0.008247H0V11.834H51.83C56.9175 11.834 59.4613 14.2956 59.4613 19.2187V25.1229C59.4613 30.046 56.9175 32.5076 51.83 32.5076H0V80H11.5192V44.3161H43.6864L57.9902 80H70.2975L55.8492 44.0924C61.3221 43.3923 65.2144 41.321 67.5261 37.8782C69.8636 34.3008 71.0999 29.7102 70.9937 25.0024Z" fill="#1B75BC"/>
<path fill-rule="evenodd" clip-rule="evenodd" d="M124.34 0H115.872L75 80H87.9271L120.146 15.5799L151.901 80H165L124.34 0Z" fill="#1B75BC"/>
<path fill-rule="evenodd" clip-rule="evenodd" d="M170 0V80H182V0H170Z" fill="#1B75BC"/>
<path fill-rule="evenodd" clip-rule="evenodd" d="M265.963 43.0385C265.258 40.6794 264.114 38.5904 262.635 36.9628C260.891 35.1161 258.875 33.7625 256.714 32.9869C253.836 31.9675 250.863 31.4923 247.883 31.5756H212.09C207.05 31.5182 204.531 29.0283 204.531 24.1058V19.2177C204.531 14.2952 207.068 11.8339 212.142 11.8339H263.684V0.00957979H212.09C209.097 -0.0754283 206.11 0.405685 203.22 1.43814C201.057 2.2062 199.04 3.56052 197.299 5.41401C195.841 7.04419 194.722 9.13505 194.049 11.4897C193.331 13.9974 192.976 16.6591 193.001 19.3382V23.9853C192.976 26.6588 193.331 29.3149 194.049 31.8166C194.738 34.1736 195.874 36.2595 197.351 37.875C199.074 39.7324 201.073 41.0981 203.22 41.8853C206.093 42.9047 209.062 43.38 212.038 43.2967H247.831C252.914 43.2967 255.443 45.7579 255.443 50.6804V60.7836C255.443 65.7234 252.914 68.1674 247.831 68.1674H194.967V79.9918H247.883C250.863 80.0702 253.837 79.5891 256.714 78.5632C258.875 77.7876 260.891 76.4341 262.635 74.5873C264.117 72.9633 265.262 70.8732 265.963 68.5116C266.677 66.0089 267.028 63.3527 266.998 60.6804V50.8009C267.019 48.1519 266.668 45.5206 265.963 43.0385Z" fill="#1B75BC"/>
<path fill-rule="evenodd" clip-rule="evenodd" d="M419.952 0V59.4276L358.995 0H349V80H359.074V17.7319L424.351 80H430V0H419.952Z" fill="#1B75BC"/>
<path fill-rule="evenodd" clip-rule="evenodd" d="M512.964 43.0563C512.26 40.6962 511.116 38.6062 509.638 36.9779C507.892 35.127 505.872 33.7726 503.707 33.0003C500.835 31.9792 497.868 31.5038 494.894 31.5883H459.106C454.034 31.5883 451.498 29.1259 451.498 24.2013V19.2249C451.498 14.3002 454.034 11.8379 459.106 11.8379H510.62V0.00825099H459.106C456.132 -0.0701955 453.164 0.411074 450.294 1.43745C448.131 2.20585 446.115 3.56076 444.375 5.41509C442.889 7.03358 441.744 9.12647 441.049 11.4935C440.331 14.0023 439.976 16.6652 440.001 19.3454V23.9946C439.976 26.6693 440.331 29.3266 441.049 31.8294C441.744 34.1912 442.889 36.2784 444.375 37.8905C446.115 39.7449 448.131 41.0998 450.294 41.8682C453.165 42.888 456.133 43.3635 459.106 43.2801H494.881C499.953 43.2801 502.489 45.7425 502.489 50.6672V60.7749C502.489 65.7168 499.948 68.1619 494.881 68.1619H441.992V79.9915H494.881C497.855 80.0711 500.823 79.5899 503.693 78.5623C505.859 77.79 507.878 76.4356 509.625 74.5847C511.107 72.9716 512.256 70.8928 512.964 68.5407C513.672 66.0346 514.022 63.3789 513.999 60.706V50.8222C514.013 48.1727 513.663 45.5417 512.964 43.0563Z" fill="#1B75BC"/>
<path fill-rule="evenodd" clip-rule="evenodd" d="M524 11.8244V0H587V11.8244H524ZM535.574 43.6317V68.1583H587V80H524V31.8072H566.672V43.6317H535.574Z" fill="#1B75BC"/>
<path fill-rule="evenodd" clip-rule="evenodd" d="M276 11.8244V0H339V11.8244H276ZM287.574 43.6317V68.1583H339V80H276V31.8072H318.672V43.6317H287.574Z" fill="#1B75BC"/>
</svg>
