<svg width="37" height="32" viewBox="0 0 37 32" fill="none" xmlns="http://www.w3.org/2000/svg">
<path fill-rule="evenodd" clip-rule="evenodd" d="M9.11789 18.5047L0.649173 15.3439C-0.210979 15.0215 -0.218452 13.8072 0.639251 13.4765L35.3952 0.0686632C36.132 -0.216298 36.8923 0.429213 36.7317 1.203L30.4947 31.2051C30.3475 31.9133 29.5171 32.2347 28.9309 31.8085L20.4165 25.6269C19.8994 25.2515 19.1946 25.2716 18.6998 25.6748L13.9791 29.5232C13.4312 29.9712 12.6055 29.7216 12.3958 29.0464L9.11789 18.5047ZM28.4187 6.62829L11.8675 16.8221C11.2332 17.2137 10.9345 17.9797 11.1395 18.6969L12.929 24.9848C13.056 25.4304 13.7028 25.3847 13.7644 24.9243L14.2297 21.4761C14.3174 20.8269 14.6271 20.2288 15.1073 19.7819L28.7667 7.08477C29.0221 6.84784 28.716 6.44563 28.4187 6.62829Z" fill="white"/>
</svg>
