<svg width="38" height="31" viewBox="0 0 38 31" fill="none" xmlns="http://www.w3.org/2000/svg">
<path fill-rule="evenodd" clip-rule="evenodd" d="M0 27.5829C2.84616 27.7529 5.59271 27.3421 8.18272 26.1803C9.34965 25.6844 10.4027 25.0469 11.4558 24.2251C10.2177 24.1826 9.09349 23.8993 8.06887 23.3892C6.31848 22.4967 5.0804 21.1082 4.32617 19.2239C4.1554 18.7988 4.1554 18.7988 4.62502 18.8272C5.87733 18.9547 6.7881 18.9263 7.49964 18.643C6.81656 18.4021 6.17618 18.2888 5.64964 17.9346C3.03116 16.4895 1.65078 14.2651 1.40885 11.2899C1.38039 10.9498 1.48001 10.9073 1.79308 11.0632C2.71809 11.559 3.71424 11.7716 4.86694 11.8991C4.36886 11.4457 3.94194 11.0773 3.5577 10.6948C1.38039 8.37127 0.86808 4.67346 2.31962 1.83988C2.50462 1.47152 2.57578 1.47152 2.84616 1.76904C6.48925 5.94857 11.0431 8.49879 16.522 9.36303C17.077 9.4622 17.6889 9.47637 18.2581 9.58971C18.6424 9.64638 18.6851 9.4622 18.6281 9.17884C18.0589 5.8919 19.5958 2.64745 22.5274 1.01814C25.4874 -0.724505 29.3582 -0.15779 31.749 2.16574C32.0193 2.39243 32.2897 2.4491 32.6028 2.36409C34.0828 2.03823 35.4632 1.48568 36.744 0.763122C36.8578 0.734787 36.9432 0.649779 37.0855 0.550604C36.5305 2.39243 35.4205 3.75255 33.7697 4.85764C35.2924 4.70179 36.6586 4.27676 37.9963 3.75255C38.0247 3.9509 37.8824 4.05007 37.8113 4.19175C36.8863 5.45269 35.819 6.57195 34.5524 7.50703C34.3247 7.69122 34.2678 7.84706 34.2678 8.14459C34.3674 13.8684 32.5317 18.9547 28.8601 23.3892C25.4162 27.4129 21.0047 29.8498 15.7677 30.6857C10.2035 31.5641 4.98079 30.6148 0.17077 27.6679C0.113847 27.6254 0.0426925 27.5829 0 27.5829Z" fill="#FFFFFE"/>
</svg>
